<?xml version="1.0" standalone="no"?>
<!DOCTYPE svg PUBLIC "-//W3C//DTD SVG 20010904//EN"
 "http://www.w3.org/TR/2001/REC-SVG-20010904/DTD/svg10.dtd">
<svg version="1.0" xmlns="http://www.w3.org/2000/svg"
 width="222.000000pt" height="222.000000pt" viewBox="0 0 222.000000 222.000000"
 preserveAspectRatio="xMidYMid meet">
<metadata>
Created by potrace 1.11, written by Peter Selinger 2001-2013
</metadata>
<g transform="translate(0.000000,222.000000) scale(0.100000,-0.100000)"
fill="#000000" stroke="none">
<path d="M976 2104 c-95 -30 -206 -174 -206 -269 0 -32 -25 -55 -60 -55 -91 0
-219 -89 -261 -182 -33 -73 -34 -229 -2 -299 42 -94 147 -169 256 -185 54 -7
58 -12 77 -106 21 -107 101 -193 208 -224 76 -23 202 -15 264 14 93 46 168
153 183 263 6 45 9 49 35 49 15 0 57 9 92 20 82 25 147 81 185 158 25 51 28
67 27 157 0 118 -19 170 -83 234 -50 50 -106 79 -184 95 l-61 12 -12 63 c-7
35 -23 83 -34 107 -29 60 -106 127 -170 147 -65 21 -187 21 -254 1z m260 -49
c75 -31 135 -108 149 -190 4 -22 9 -48 12 -57 2 -11 -1 -18 -10 -18 -8 0 -20
22 -30 58 -21 77 -62 131 -127 166 -47 26 -65 30 -130 29 -93 0 -150 -23 -202
-81 -57 -63 -68 -116 -68 -319 0 -118 -3 -173 -11 -173 -8 0 -10 58 -7 193 l3
192 33 68 c37 75 77 111 155 139 62 22 171 19 233 -7z m-30 -74 c59 -27 98
-81 118 -164 6 -25 4 -28 -16 -25 -17 2 -24 11 -29 38 -14 84 -64 134 -147
146 -90 13 -178 -40 -201 -121 -6 -22 -11 -118 -11 -212 0 -173 0 -173 -22
-173 l-23 0 5 197 c5 211 10 232 62 280 58 54 184 70 264 34z m-27 -66 c17 -8
35 -30 45 -55 21 -53 20 -70 -4 -70 -15 0 -22 8 -26 29 -9 42 -47 75 -88 75
-79 0 -96 -46 -96 -259 0 -164 0 -165 -22 -165 -23 0 -23 0 -22 173 0 197 9
238 58 268 38 23 115 25 155 4z m-41 -77 c21 -21 14 -48 -11 -48 -43 0 -47
-15 -47 -172 0 -92 -4 -148 -10 -148 -14 0 -13 335 0 361 12 21 50 25 68 7z
m-380 -110 c-3 -7 -23 -16 -45 -21 -66 -13 -143 -66 -178 -121 -28 -46 -30
-57 -30 -140 0 -106 24 -169 81 -212 61 -47 95 -53 302 -54 169 0 192 -2 192
-16 0 -14 -21 -15 -192 -12 -229 5 -265 15 -344 93 -63 63 -78 111 -72 228 5
96 33 157 92 202 61 47 205 86 194 53z m779 -10 c87 -29 162 -99 182 -170 19
-69 10 -202 -17 -254 -37 -72 -118 -125 -216 -139 -71 -11 -56 10 25 35 57 17
81 31 118 68 59 59 76 112 69 217 -6 94 -40 155 -112 200 l-49 30 -204 3
c-169 3 -203 6 -203 18 0 12 29 14 170 14 148 0 178 -3 237 -22z m-777 -67 c0
-15 -10 -21 -40 -26 -86 -14 -142 -76 -148 -162 -5 -79 25 -138 88 -173 43
-23 55 -25 233 -28 175 -4 187 -5 187 -23 0 -18 -10 -19 -179 -19 -233 0 -284
17 -331 110 -56 112 -17 255 84 307 67 35 106 40 106 14z m791 -8 c76 -39 104
-91 104 -193 0 -97 -30 -153 -102 -192 -70 -37 -100 -42 -106 -19 -5 21 10 31
45 31 36 0 99 43 119 82 26 52 25 139 -2 188 -12 21 -40 48 -63 61 -39 23 -52
24 -233 27 -183 3 -193 5 -193 23 0 18 9 19 188 19 186 0 189 0 243 -27z
m-791 -82 c0 -13 -10 -20 -32 -25 -47 -9 -78 -43 -78 -83 0 -86 44 -103 265
-103 158 0 165 -1 165 -20 0 -19 -7 -20 -172 -20 -191 0 -237 8 -267 46 -47
60 -33 160 28 201 43 29 91 31 91 4z m771 -4 c47 -31 61 -62 56 -125 -5 -65
-42 -109 -100 -119 -33 -5 -37 -3 -37 16 0 16 8 23 30 28 67 13 94 102 45 147
-34 32 -62 36 -241 36 -147 0 -154 1 -154 20 0 19 7 20 184 20 174 0 185 -1
217 -23z m-608 -135 c220 -4 206 -22 -17 -22 -155 0 -176 2 -197 19 -20 16
-22 22 -12 44 7 14 22 27 35 29 20 3 24 -2 28 -32 l5 -35 158 -3z m571 52 c19
-18 20 -28 6 -55 -14 -25 -65 -27 -56 -3 4 9 4 25 1 35 -6 17 -19 19 -161 19
-96 0 -154 4 -154 10 0 6 65 10 174 10 145 0 177 -3 190 -16z m-344 -216 c0
-180 -8 -213 -50 -213 -16 0 -29 9 -37 25 -12 23 -11 25 15 28 50 7 52 14 52
173 0 93 4 149 10 149 6 0 10 -61 10 -162z m89 -10 c0 -112 -5 -185 -13 -208
-17 -47 -67 -80 -123 -80 -77 0 -117 32 -134 107 -6 30 -5 33 16 33 17 0 24
-7 28 -30 9 -45 40 -70 87 -70 45 0 75 23 87 67 5 16 8 101 8 190 0 162 0 163
23 163 22 0 22 0 21 -172z m89 -20 c-3 -184 -4 -195 -28 -236 -59 -105 -226
-134 -332 -60 -33 23 -73 89 -83 136 -6 28 -4 32 13 32 16 0 22 -9 27 -40 9
-51 41 -98 85 -122 27 -15 50 -18 102 -16 82 4 113 24 148 94 23 46 25 61 28
227 4 168 5 177 24 177 19 0 19 -7 16 -192z m70 5 c-4 -180 -5 -190 -32 -249
-52 -115 -135 -167 -266 -167 -124 0 -206 47 -256 146 -26 51 -44 147 -27 147
5 0 19 -32 32 -72 18 -55 33 -81 70 -117 54 -55 100 -71 197 -71 108 1 182 41
227 125 20 36 22 58 25 243 3 173 6 202 19 202 13 0 15 -24 11 -187z"/>
<path d="M565 345 l0 -225 126 0 125 0 16 49 15 48 -89 -5 -89 -5 3 164 c2 90
7 172 12 182 7 15 2 17 -55 17 l-64 0 0 -225z"/>
<path d="M941 538 c5 -18 9 -105 9 -193 0 -88 -4 -175 -9 -193 l-10 -32 135 0
134 0 11 28 c6 15 13 39 16 55 5 26 4 27 -21 17 -15 -5 -56 -10 -92 -10 l-64
0 0 56 0 56 53 -4 52 -3 0 50 0 50 -52 -3 -53 -4 0 41 0 41 59 0 c33 0 71 -4
85 -10 30 -11 32 -6 14 51 l-11 39 -133 0 -133 0 10 -32z"/>
<path d="M1345 345 l0 -225 131 0 131 0 12 41 c7 23 15 47 18 55 4 12 0 12
-22 4 -14 -5 -58 -10 -96 -10 l-69 0 0 56 0 56 55 -4 55 -5 0 54 c0 47 -2 54
-17 49 -10 -3 -34 -6 -53 -8 -35 -3 -35 -3 -38 40 l-3 42 65 0 c35 0 76 -4 90
-10 14 -5 26 -8 26 -7 0 2 -7 24 -16 50 l-16 47 -126 0 -127 0 0 -225z"/>
</g>
</svg>
